<svg
xmlns="http://www.w3.org/2000/svg"
width="1100"
height="330"
viewBox="0 0 1100 330"
role="img"
aria-label="GitHub activity graph for mussaratshamsher"
>

<rect
    width="100%"
    height="100%"
    rx="12"
    fill="transparent"
/>

<text
    x="60"
    y="28"
    font-family="-apple-system,BlinkMacSystemFont,'Segoe UI',sans-serif"
    font-size="18"
    font-weight="600"
    fill="#24292f"
>
    GitHub Activity
</text>

<text
    x="1070"
    y="28"
    text-anchor="end"
    font-family="-apple-system,BlinkMacSystemFont,'Segoe UI',sans-serif"
    font-size="13"
    fill="#57606a"
>
    77 contributions
</text>

<line
    x1="60"
    y1="275"
    x2="1070"
    y2="275"
    stroke="#d0d7de"
    stroke-width="1"
/>

<line
    x1="60"
    y1="165.0"
    x2="1070"
    y2="165.0"
    stroke="#d8dee4"
    stroke-width="1"
    stroke-dasharray="4 4"
/>

<polygon
    points="60,275 60.00,275.00 62.75,275.00 65.50,275.00 68.26,275.00 71.01,275.00 73.76,275.00 76.51,275.00 79.26,275.00 82.02,275.00 84.77,275.00 87.52,275.00 90.27,275.00 93.02,275.00 95.78,275.00 98.53,275.00 101.28,275.00 104.03,275.00 106.78,275.00 109.54,275.00 112.29,275.00 115.04,275.00 117.79,275.00 120.54,275.00 123.30,275.00 126.05,275.00 128.80,275.00 131.55,275.00 134.31,275.00 137.06,275.00 139.81,275.00 142.56,275.00 145.31,275.00 148.07,275.00 150.82,275.00 153.57,275.00 156.32,275.00 159.07,275.00 161.83,275.00 164.58,241.15 167.33,207.31 170.08,275.00 172.83,275.00 175.59,275.00 178.34,275.00 181.09,275.00 183.84,275.00 186.59,275.00 189.35,275.00 192.10,275.00 194.85,275.00 197.60,275.00 200.35,275.00 203.11,275.00 205.86,275.00 208.61,275.00 211.36,258.08 214.11,275.00 216.87,275.00 219.62,275.00 222.37,275.00 225.12,275.00 227.87,275.00 230.63,275.00 233.38,275.00 236.13,258.08 238.88,275.00 241.63,275.00 244.39,275.00 247.14,275.00 249.89,258.08 252.64,275.00 255.40,275.00 258.15,275.00 260.90,258.08 263.65,275.00 266.40,275.00 269.16,275.00 271.91,275.00 274.66,275.00 277.41,275.00 280.16,275.00 282.92,275.00 285.67,275.00 288.42,275.00 291.17,275.00 293.92,275.00 296.68,275.00 299.43,275.00 302.18,258.08 304.93,275.00 307.68,275.00 310.44,275.00 313.19,275.00 315.94,275.00 318.69,275.00 321.44,275.00 324.20,275.00 326.95,275.00 329.70,275.00 332.45,275.00 335.20,275.00 337.96,275.00 340.71,275.00 343.46,275.00 346.21,275.00 348.96,275.00 351.72,275.00 354.47,275.00 357.22,275.00 359.97,275.00 362.72,275.00 365.48,275.00 368.23,275.00 370.98,275.00 373.73,275.00 376.49,275.00 379.24,275.00 381.99,275.00 384.74,275.00 387.49,275.00 390.25,275.00 393.00,275.00 395.75,275.00 398.50,275.00 401.25,275.00 404.01,275.00 406.76,275.00 409.51,258.08 412.26,275.00 415.01,275.00 417.77,275.00 420.52,275.00 423.27,275.00 426.02,275.00 428.77,275.00 431.53,275.00 434.28,275.00 437.03,275.00 439.78,275.00 442.53,275.00 445.29,275.00 448.04,275.00 450.79,275.00 453.54,275.00 456.29,275.00 459.05,275.00 461.80,275.00 464.55,275.00 467.30,275.00 470.05,275.00 472.81,275.00 475.56,275.00 478.31,275.00 481.06,275.00 483.81,275.00 486.57,275.00 489.32,275.00 492.07,275.00 494.82,275.00 497.57,258.08 500.33,275.00 503.08,275.00 505.83,275.00 508.58,275.00 511.34,275.00 514.09,275.00 516.84,275.00 519.59,275.00 522.34,275.00 525.10,275.00 527.85,275.00 530.60,275.00 533.35,275.00 536.10,275.00 538.86,275.00 541.61,275.00 544.36,275.00 547.11,275.00 549.86,275.00 552.62,275.00 555.37,275.00 558.12,275.00 560.87,275.00 563.62,275.00 566.38,275.00 569.13,275.00 571.88,275.00 574.63,275.00 577.38,275.00 580.14,275.00 582.89,275.00 585.64,275.00 588.39,275.00 591.14,275.00 593.90,275.00 596.65,275.00 599.40,275.00 602.15,275.00 604.90,275.00 607.66,275.00 610.41,275.00 613.16,275.00 615.91,275.00 618.66,275.00 621.42,275.00 624.17,275.00 626.92,275.00 629.67,275.00 632.43,275.00 635.18,275.00 637.93,275.00 640.68,275.00 643.43,275.00 646.19,241.15 648.94,275.00 651.69,275.00 654.44,275.00 657.19,275.00 659.95,275.00 662.70,275.00 665.45,275.00 668.20,275.00 670.95,275.00 673.71,275.00 676.46,275.00 679.21,275.00 681.96,275.00 684.71,275.00 687.47,275.00 690.22,275.00 692.97,275.00 695.72,275.00 698.47,275.00 701.23,275.00 703.98,275.00 706.73,275.00 709.48,258.08 712.23,275.00 714.99,275.00 717.74,275.00 720.49,275.00 723.24,275.00 725.99,275.00 728.75,275.00 731.50,275.00 734.25,275.00 737.00,275.00 739.75,275.00 742.51,275.00 745.26,275.00 748.01,275.00 750.76,275.00 753.51,275.00 756.27,275.00 759.02,258.08 761.77,55.00 764.52,275.00 767.28,275.00 770.03,275.00 772.78,258.08 775.53,275.00 778.28,275.00 781.04,258.08 783.79,275.00 786.54,275.00 789.29,275.00 792.04,275.00 794.80,275.00 797.55,275.00 800.30,275.00 803.05,275.00 805.80,275.00 808.56,275.00 811.31,275.00 814.06,275.00 816.81,275.00 819.56,275.00 822.32,275.00 825.07,275.00 827.82,275.00 830.57,275.00 833.32,258.08 836.08,275.00 838.83,275.00 841.58,275.00 844.33,258.08 847.08,258.08 849.84,275.00 852.59,275.00 855.34,275.00 858.09,275.00 860.84,258.08 863.60,275.00 866.35,275.00 869.10,275.00 871.85,275.00 874.60,275.00 877.36,275.00 880.11,224.23 882.86,275.00 885.61,241.15 888.37,258.08 891.12,258.08 893.87,275.00 896.62,122.69 899.37,275.00 902.13,275.00 904.88,275.00 907.63,275.00 910.38,275.00 913.13,275.00 915.89,275.00 918.64,275.00 921.39,275.00 924.14,275.00 926.89,275.00 929.65,275.00 932.40,275.00 935.15,275.00 937.90,258.08 940.65,275.00 943.41,275.00 946.16,275.00 948.91,258.08 951.66,258.08 954.41,275.00 957.17,275.00 959.92,275.00 962.67,258.08 965.42,258.08 968.17,224.23 970.93,275.00 973.68,275.00 976.43,258.08 979.18,156.54 981.93,275.00 984.69,275.00 987.44,241.15 990.19,258.08 992.94,275.00 995.69,275.00 998.45,275.00 1001.20,275.00 1003.95,275.00 1006.70,275.00 1009.46,241.15 1012.21,275.00 1014.96,275.00 1017.71,275.00 1020.46,275.00 1023.22,275.00 1025.97,275.00 1028.72,275.00 1031.47,275.00 1034.22,275.00 1036.98,275.00 1039.73,275.00 1042.48,275.00 1045.23,275.00 1047.98,275.00 1050.74,258.08 1053.49,224.23 1056.24,275.00 1058.99,275.00 1061.74,275.00 1064.50,275.00 1067.25,275.00 1070.00,275.00 1070,275"
    fill="#2da44e"
    opacity="0.10"
/>

<polyline
    points="60.00,275.00 62.75,275.00 65.50,275.00 68.26,275.00 71.01,275.00 73.76,275.00 76.51,275.00 79.26,275.00 82.02,275.00 84.77,275.00 87.52,275.00 90.27,275.00 93.02,275.00 95.78,275.00 98.53,275.00 101.28,275.00 104.03,275.00 106.78,275.00 109.54,275.00 112.29,275.00 115.04,275.00 117.79,275.00 120.54,275.00 123.30,275.00 126.05,275.00 128.80,275.00 131.55,275.00 134.31,275.00 137.06,275.00 139.81,275.00 142.56,275.00 145.31,275.00 148.07,275.00 150.82,275.00 153.57,275.00 156.32,275.00 159.07,275.00 161.83,275.00 164.58,241.15 167.33,207.31 170.08,275.00 172.83,275.00 175.59,275.00 178.34,275.00 181.09,275.00 183.84,275.00 186.59,275.00 189.35,275.00 192.10,275.00 194.85,275.00 197.60,275.00 200.35,275.00 203.11,275.00 205.86,275.00 208.61,275.00 211.36,258.08 214.11,275.00 216.87,275.00 219.62,275.00 222.37,275.00 225.12,275.00 227.87,275.00 230.63,275.00 233.38,275.00 236.13,258.08 238.88,275.00 241.63,275.00 244.39,275.00 247.14,275.00 249.89,258.08 252.64,275.00 255.40,275.00 258.15,275.00 260.90,258.08 263.65,275.00 266.40,275.00 269.16,275.00 271.91,275.00 274.66,275.00 277.41,275.00 280.16,275.00 282.92,275.00 285.67,275.00 288.42,275.00 291.17,275.00 293.92,275.00 296.68,275.00 299.43,275.00 302.18,258.08 304.93,275.00 307.68,275.00 310.44,275.00 313.19,275.00 315.94,275.00 318.69,275.00 321.44,275.00 324.20,275.00 326.95,275.00 329.70,275.00 332.45,275.00 335.20,275.00 337.96,275.00 340.71,275.00 343.46,275.00 346.21,275.00 348.96,275.00 351.72,275.00 354.47,275.00 357.22,275.00 359.97,275.00 362.72,275.00 365.48,275.00 368.23,275.00 370.98,275.00 373.73,275.00 376.49,275.00 379.24,275.00 381.99,275.00 384.74,275.00 387.49,275.00 390.25,275.00 393.00,275.00 395.75,275.00 398.50,275.00 401.25,275.00 404.01,275.00 406.76,275.00 409.51,258.08 412.26,275.00 415.01,275.00 417.77,275.00 420.52,275.00 423.27,275.00 426.02,275.00 428.77,275.00 431.53,275.00 434.28,275.00 437.03,275.00 439.78,275.00 442.53,275.00 445.29,275.00 448.04,275.00 450.79,275.00 453.54,275.00 456.29,275.00 459.05,275.00 461.80,275.00 464.55,275.00 467.30,275.00 470.05,275.00 472.81,275.00 475.56,275.00 478.31,275.00 481.06,275.00 483.81,275.00 486.57,275.00 489.32,275.00 492.07,275.00 494.82,275.00 497.57,258.08 500.33,275.00 503.08,275.00 505.83,275.00 508.58,275.00 511.34,275.00 514.09,275.00 516.84,275.00 519.59,275.00 522.34,275.00 525.10,275.00 527.85,275.00 530.60,275.00 533.35,275.00 536.10,275.00 538.86,275.00 541.61,275.00 544.36,275.00 547.11,275.00 549.86,275.00 552.62,275.00 555.37,275.00 558.12,275.00 560.87,275.00 563.62,275.00 566.38,275.00 569.13,275.00 571.88,275.00 574.63,275.00 577.38,275.00 580.14,275.00 582.89,275.00 585.64,275.00 588.39,275.00 591.14,275.00 593.90,275.00 596.65,275.00 599.40,275.00 602.15,275.00 604.90,275.00 607.66,275.00 610.41,275.00 613.16,275.00 615.91,275.00 618.66,275.00 621.42,275.00 624.17,275.00 626.92,275.00 629.67,275.00 632.43,275.00 635.18,275.00 637.93,275.00 640.68,275.00 643.43,275.00 646.19,241.15 648.94,275.00 651.69,275.00 654.44,275.00 657.19,275.00 659.95,275.00 662.70,275.00 665.45,275.00 668.20,275.00 670.95,275.00 673.71,275.00 676.46,275.00 679.21,275.00 681.96,275.00 684.71,275.00 687.47,275.00 690.22,275.00 692.97,275.00 695.72,275.00 698.47,275.00 701.23,275.00 703.98,275.00 706.73,275.00 709.48,258.08 712.23,275.00 714.99,275.00 717.74,275.00 720.49,275.00 723.24,275.00 725.99,275.00 728.75,275.00 731.50,275.00 734.25,275.00 737.00,275.00 739.75,275.00 742.51,275.00 745.26,275.00 748.01,275.00 750.76,275.00 753.51,275.00 756.27,275.00 759.02,258.08 761.77,55.00 764.52,275.00 767.28,275.00 770.03,275.00 772.78,258.08 775.53,275.00 778.28,275.00 781.04,258.08 783.79,275.00 786.54,275.00 789.29,275.00 792.04,275.00 794.80,275.00 797.55,275.00 800.30,275.00 803.05,275.00 805.80,275.00 808.56,275.00 811.31,275.00 814.06,275.00 816.81,275.00 819.56,275.00 822.32,275.00 825.07,275.00 827.82,275.00 830.57,275.00 833.32,258.08 836.08,275.00 838.83,275.00 841.58,275.00 844.33,258.08 847.08,258.08 849.84,275.00 852.59,275.00 855.34,275.00 858.09,275.00 860.84,258.08 863.60,275.00 866.35,275.00 869.10,275.00 871.85,275.00 874.60,275.00 877.36,275.00 880.11,224.23 882.86,275.00 885.61,241.15 888.37,258.08 891.12,258.08 893.87,275.00 896.62,122.69 899.37,275.00 902.13,275.00 904.88,275.00 907.63,275.00 910.38,275.00 913.13,275.00 915.89,275.00 918.64,275.00 921.39,275.00 924.14,275.00 926.89,275.00 929.65,275.00 932.40,275.00 935.15,275.00 937.90,258.08 940.65,275.00 943.41,275.00 946.16,275.00 948.91,258.08 951.66,258.08 954.41,275.00 957.17,275.00 959.92,275.00 962.67,258.08 965.42,258.08 968.17,224.23 970.93,275.00 973.68,275.00 976.43,258.08 979.18,156.54 981.93,275.00 984.69,275.00 987.44,241.15 990.19,258.08 992.94,275.00 995.69,275.00 998.45,275.00 1001.20,275.00 1003.95,275.00 1006.70,275.00 1009.46,241.15 1012.21,275.00 1014.96,275.00 1017.71,275.00 1020.46,275.00 1023.22,275.00 1025.97,275.00 1028.72,275.00 1031.47,275.00 1034.22,275.00 1036.98,275.00 1039.73,275.00 1042.48,275.00 1045.23,275.00 1047.98,275.00 1050.74,258.08 1053.49,224.23 1056.24,275.00 1058.99,275.00 1061.74,275.00 1064.50,275.00 1067.25,275.00 1070.00,275.00"
    fill="none"
    stroke="#2da44e"
    stroke-width="3"
    stroke-linejoin="round"
    stroke-linecap="round"
/>

<text
    x="60"
    y="310"
    font-family="-apple-system,BlinkMacSystemFont,'Segoe UI',sans-serif"
    font-size="12"
    fill="#57606a"
>
    2025-10-05
</text>

<text
    x="1070"
    y="310"
    text-anchor="end"
    font-family="-apple-system,BlinkMacSystemFont,'Segoe UI',sans-serif"
    font-size="12"
    fill="#57606a"
>
    2026-10-07
</text>

</svg>
